<svg width="14" height="11" viewBox="0 0 14 11" fill="none" xmlns="http://www.w3.org/2000/svg">
<path d="M14 1.30147C13.4847 1.52233 12.9318 1.67211 12.3509 1.73898C12.9441 1.3954 13.3981 0.850448 13.6133 0.203086C13.0569 0.521258 12.4428 0.752291 11.7884 0.877532C11.2644 0.336803 10.519 4.18672e-08 9.69227 4.18672e-08C8.1062 4.18672e-08 6.82018 1.24394 6.82018 2.77729C6.82018 2.99476 6.84555 3.20716 6.89455 3.41027C4.50801 3.29432 2.39178 2.18832 0.975426 0.507716C0.727841 0.917296 0.586994 1.39454 0.586994 1.90398C0.586994 2.86783 1.0944 3.71828 1.86427 4.21584C1.3936 4.20062 0.950926 4.07538 0.563386 3.8672V3.9019C0.563386 5.24738 1.55371 6.37031 2.86682 6.62588C2.62624 6.6885 2.37255 6.7232 2.11009 6.7232C1.92464 6.7232 1.74529 6.70543 1.56944 6.67157C1.93511 7.77589 2.99543 8.57894 4.25171 8.60096C3.26926 9.34564 2.03048 9.78821 0.684995 9.78821C0.453171 9.78821 0.224824 9.77467 0 9.75013C1.27114 10.5397 2.78024 11 4.40218 11C9.68532 11 12.5732 6.76721 12.5732 3.09632L12.5635 2.73668C13.1278 2.3474 13.6159 1.85829 14 1.30147Z" fill="white"/>
</svg>
